<?xml version="1.0" encoding="utf-8"?>
<!-- Generator: Adobe Illustrator 16.0.0, SVG Export Plug-In . SVG Version: 6.00 Build 0)  -->
<!DOCTYPE svg PUBLIC "-//W3C//DTD SVG 1.1//EN" "http://www.w3.org/Graphics/SVG/1.1/DTD/svg11.dtd">
<svg version="1.1" id="Layer_1" xmlns="http://www.w3.org/2000/svg" xmlns:xlink="http://www.w3.org/1999/xlink" x="0px" y="0px"
	 width="30px" height="30px" viewBox="0 0 30 30" enable-background="new 0 0 30 30" xml:space="preserve">
<g>
	<path fill="#FF3586" d="M30,26c0,2.2-1.8,4-4,4H4c-2.2,0-4-1.8-4-4V4c0-2.2,1.8-4,4-4h22c2.2,0,4,1.8,4,4V26z"/>
</g>
<g>
	<path fill="#FFFFFF" d="M13.581,16.368h-3.534c-0.746,0-1.368-0.597-1.368-1.368c0-0.746,0.622-1.368,1.368-1.368h3.534v-3.46
		c0-0.797,0.622-1.419,1.419-1.419c0.771,0,1.418,0.622,1.418,1.419v3.46h3.534c0.746,0,1.369,0.622,1.369,1.368
		c0,0.771-0.623,1.368-1.369,1.368h-3.534v3.46c0,0.797-0.646,1.419-1.418,1.419c-0.797,0-1.419-0.622-1.419-1.419V16.368z"/>
</g>
</svg>
